<svg width="122" height="107" viewBox="0 0 122 107" fill="none" xmlns="http://www.w3.org/2000/svg">
<path d="M63.5698 36.2372C56.9701 31.1143 50.6573 29.4483 40.8054 30.3229C46.927 27.7823 42.8619 29.365 51.1833 25.9497C57.4005 25.5333 63.809 27.824 67.874 31.9889L72.6087 27.4908L73.326 46.1497L50.3703 39.2359L63.5698 36.2372Z" fill="#2A2941"/>
<path fill-rule="evenodd" clip-rule="evenodd" d="M71.413 36.0289L28.7059 52.064L44.727 85.7583L86.669 69.765L71.413 36.0289Z" fill="#2A2941"/>
<path fill-rule="evenodd" clip-rule="evenodd" d="M75.0955 29.4483L32.3884 45.525L48.4095 79.261L90.208 63.2677L74.9999 29.5316L75.0955 29.4483Z" fill="white"/>
<path fill-rule="evenodd" clip-rule="evenodd" d="M92.2167 63.8924L75.9085 27.7823L30.4276 44.8586L47.5965 80.9687L92.2167 63.8924ZM74.2825 31.1143L88.4385 62.4347L49.2225 77.4285L34.3491 46.1081L74.2825 31.1143Z" fill="#2A2941"/>
<path d="M48.4095 74.7212L43.0532 46.6912L84.5648 31.1143L87.0516 59.6025L48.4095 74.7212Z" fill="#32EDBB"/>
<path d="M47.6922 75.9291L41.9532 46.1914L85.4256 29.8648L88.0559 60.1439L47.6922 75.9291ZM44.1053 47.191L49.1747 73.5134L86.0473 59.1027L83.7039 32.3221L44.1053 47.191Z" fill="#2A2941"/>
<path d="M90.2558 63.2676C90.3037 62.6013 91.5471 34.0714 91.5471 34.0714L49.7486 50.8145L49.9877 78.0115L90.2558 63.2676Z" fill="white"/>
<path d="M48.553 79.8441L48.3139 49.9815L93.0297 32.0722L92.934 34.113C92.934 34.113 91.6906 62.6846 91.6428 63.3093L91.5949 64.1006L48.553 79.8441ZM51.1833 51.6058L51.3746 76.0957L88.8689 62.393C89.0602 58.5196 89.7776 41.8598 90.0167 36.0289L51.1833 51.6058Z" fill="#2A2941"/>
<path d="M70.6 33.0302C62.6133 28.4904 57.6874 26.866 49.079 27.7407C55.2006 25.2001 53.7658 25.6582 62.1351 22.2846C68.3523 21.8681 74.7607 24.1588 78.8258 28.3238L83.5604 23.8256L84.2778 42.4846L61.3221 35.5708L70.6 33.0302Z" fill="#FEC34E"/>
<path d="M85.2343 43.6508L58.2135 35.5291L68.3523 32.7803C61.7525 29.1984 57.0657 27.7823 49.2225 28.5737L43.4358 29.1568L48.6965 26.991C51.3268 25.9081 52.5702 25.3667 53.7658 24.8669C55.4397 24.1588 56.9701 23.4924 61.7525 21.5349L61.896 21.4516H62.0873C68.2566 21.0351 74.5695 23.1592 78.8258 27.0743L84.4213 21.7432L85.2343 43.6508ZM64.335 35.6124L83.2257 41.3184L82.6518 25.9081L78.778 29.5732L78.0606 28.8652C74.2347 24.9502 68.2088 22.7844 62.3742 23.1176C57.7353 24.9918 56.2049 25.6582 54.5789 26.3662C54.3397 26.4912 54.0528 26.5745 53.8137 26.6994C60.1743 26.7827 64.7176 28.6986 71.1261 32.3638L72.8478 33.3217L64.335 35.6124Z" fill="#2A2941"/>
</svg>
