<svg width="146" height="128" viewBox="-20 -10 122 107" fill="none" xmlns="http://www.w3.org/2000/svg">
<path fill-rule="evenodd" clip-rule="evenodd" d="M35.6544 54.2674L10.4784 64.4784L20.6956 87.7802L46.0409 77.6216L35.5415 54.2674H35.6544Z" fill="#2A2941"/>
<path fill-rule="evenodd" clip-rule="evenodd" d="M45.7587 50.2878C44.7426 50.0784 43.783 49.6071 43.0491 48.874C42.3153 48.1933 41.8073 47.3031 41.5815 46.3605C41.3557 45.418 41.4121 44.4231 41.7508 43.5329C42.0895 42.6427 42.7104 41.8049 43.5572 41.2289C44.3474 40.6005 45.3635 40.234 46.3796 40.1293C47.3957 40.0245 48.4682 40.1816 49.4278 40.6005C50.3874 41.0194 51.1777 41.7002 51.7422 42.4856C52.3067 43.3234 52.5889 44.266 52.5889 45.2085C52.5889 46.0987 52.3631 46.9889 51.8551 47.7744L61.1126 44.0042L71.612 67.3584L46.2667 77.6216L42.2589 68.5627C41.9766 69.5053 41.4121 70.3431 40.6219 71.0238C39.8316 71.7045 38.872 72.1235 37.8559 72.2805C36.8398 72.4376 35.7673 72.3329 34.7512 72.0187C33.7916 71.6522 32.8884 71.0762 32.2675 70.2907C31.6465 69.5053 31.2514 68.5627 31.1385 67.6202C31.0256 66.6253 31.2514 65.6827 31.703 64.7925C32.1546 63.9024 32.8884 63.1693 33.7916 62.698C34.6948 62.1744 35.7108 61.9125 36.7834 61.9125C37.6865 61.9125 38.5897 62.122 39.4364 62.5409L35.8237 54.3722L45.7587 50.2878Z" fill="#2A2941"/>
<path fill-rule="evenodd" clip-rule="evenodd" d="M28.7112 36.3067C30.2353 36.5685 29.7273 38.506 29.7273 38.506L26.1711 44.6325L16.4055 40.0245C17.0264 41.1765 17.1958 42.4333 16.8571 43.69C16.5184 44.9467 15.6716 45.994 14.5427 46.7271C13.4137 47.4078 12.0025 47.722 10.6477 47.5125C9.29297 47.3031 8.05111 46.6747 7.20438 45.6798C6.24476 44.6325 5.79317 43.2711 5.90606 41.9096C6.01896 40.5482 6.69634 39.2914 7.82531 38.4013C8.55914 37.8253 9.46232 37.4587 10.4784 37.354L1.50308 33.1125L14.3169 10.858L38.9849 22.5351L35.6544 28.2951C35.6544 28.2951 34.1867 30.0231 33.0013 28.8187C32.3804 27.9809 31.6466 27.3002 30.7998 26.7242C30.1789 26.3576 29.4451 26.0958 28.7112 25.9387C27.9774 25.834 27.1871 25.834 26.4533 25.9911C25.7195 26.1482 25.0421 26.4623 24.4212 26.8813C23.8002 27.3002 23.2922 27.8238 22.897 28.4522C22.5019 29.0805 22.2761 29.7613 22.1632 30.442C22.0503 31.1227 22.1632 31.8558 22.3326 32.5365C22.5584 33.2173 22.897 33.8456 23.4051 34.3693C23.9131 34.8929 24.4776 35.3642 25.155 35.6783C26.3969 36.0449 27.5823 36.3067 28.7112 36.3067Z" fill="#2A2941"/>
<path fill-rule="evenodd" clip-rule="evenodd" d="M38.5333 47.6173L13.3572 57.8282L23.5744 81.1824L48.9198 71.0238L38.4204 47.6696H38.5333V47.6173Z" fill="#32EDBB"/>
<path fill-rule="evenodd" clip-rule="evenodd" d="M52.7583 72.3853L40.1138 44.0042L9.5752 56.362L21.9939 84.7431L52.7583 72.3853ZM38.5333 47.6173L13.3572 57.8282L23.5744 81.1824L48.9198 71.0238L38.4204 47.6696H38.5333V47.6173Z" fill="#2A2941"/>
<path fill-rule="evenodd" clip-rule="evenodd" d="M48.6375 43.6376C47.6215 43.4282 46.6618 42.9569 45.928 42.2238C45.1942 41.5431 44.6862 40.6529 44.4604 39.7103C44.2346 38.7678 44.291 37.7729 44.6297 36.8827C44.9684 35.9925 45.5893 35.1547 46.4361 34.5787C47.2263 33.9503 48.2424 33.5838 49.2585 33.4791C50.2745 33.3743 51.3471 33.5314 52.3067 33.9503C53.2663 34.3692 54.0566 35.05 54.6211 35.8354C55.1856 36.6732 55.4678 37.6158 55.4678 38.5583C55.4678 39.3962 55.1856 40.234 54.734 41.0194L63.9351 37.2493L74.4345 60.6034L49.0891 70.8667L44.9684 61.9125C44.5733 62.9598 43.8394 63.85 42.8798 64.5307C41.9202 65.1591 40.7348 65.5256 39.5493 65.5256C38.0817 65.5256 36.6705 65.002 35.6544 64.0071C34.6383 63.0645 34.0174 61.7554 34.0174 60.394C34.0174 59.0325 34.5819 57.7234 35.6544 56.7809C36.7269 55.8383 38.0817 55.2623 39.5493 55.2623C40.4525 55.2623 41.3557 55.4718 42.2024 55.8907L38.5897 47.722L48.6375 43.6376V43.6376V43.6376Z" fill="#FFB800"/>
<path fill-rule="evenodd" clip-rule="evenodd" d="M37.6301 52.6965C36.4447 52.9584 35.3157 53.4296 34.2996 54.1627C33.34 54.8434 32.5497 55.7336 31.9852 56.7809C31.4208 57.8282 31.0821 58.9278 31.0256 60.0798C30.9692 61.2318 31.195 62.3838 31.6466 63.4311C32.0981 64.4784 32.832 65.4209 33.7351 66.2064C34.6383 66.9918 35.7108 67.5678 36.8962 67.9344C38.0817 68.3009 39.3235 68.4056 40.5654 68.2485C41.8073 68.0915 42.9927 67.7249 44.0088 67.1489L47.3392 74.6893L78.1036 62.2267L65.4592 33.7933L58.1209 36.778C57.6128 34.8929 56.371 33.2696 54.6775 32.1176C52.9276 31.018 50.839 30.5467 48.7504 30.7562C46.6618 30.9656 44.7426 31.9082 43.3314 33.322C41.9202 34.7882 41.1299 36.6209 41.0734 38.5583C41.0734 40.1816 41.5815 41.7525 42.5975 43.0616L34.6948 46.2558L37.6301 52.6965ZM48.6375 43.6376C47.6215 43.4282 46.6618 42.9569 45.928 42.2238C45.1942 41.4907 44.6861 40.6529 44.4603 39.7103C44.2346 38.7678 44.291 37.7729 44.6297 36.8827C44.9684 35.9925 45.5893 35.1547 46.436 34.5787C47.2263 33.9503 48.2424 33.5838 49.2585 33.4791C50.2745 33.3743 51.3471 33.5314 52.3067 33.9503C53.2663 34.3693 54.0566 35.05 54.6211 35.8354C55.1856 36.6733 55.4678 37.6158 55.4678 38.5583C55.4113 39.3962 55.1856 40.234 54.734 41.0194L63.9351 37.2493L74.4345 60.6035L49.0891 70.8667L44.9684 61.9125C44.5732 62.9598 43.8394 63.85 42.8798 64.5307C41.9202 65.1591 40.7348 65.5256 39.5493 65.5256C38.0817 65.5256 36.6705 65.002 35.6544 64.0071C34.6383 63.0645 34.0174 61.7555 34.0174 60.394C34.0174 59.0325 34.5819 57.7234 35.6544 56.7809C36.6705 55.8384 38.0817 55.2624 39.5493 55.2624C40.4525 55.2624 41.3557 55.4718 42.2024 55.8907L38.5897 47.722L48.6375 43.6376V43.6376V43.6376Z" fill="#2A2941"/>
<path fill-rule="evenodd" clip-rule="evenodd" d="M31.5901 29.6565C33.1142 29.9183 32.6062 31.8558 32.6062 31.8558L29.0499 37.9823L19.2843 33.3743C19.7359 34.2645 19.9617 35.2071 19.8488 36.202C19.7359 37.1445 19.3408 38.0871 18.7198 38.8725C18.0989 39.658 17.1957 40.234 16.2361 40.5482C15.2765 40.8623 14.204 40.9671 13.1879 40.7576C12.1718 40.5482 11.2122 40.0769 10.4784 39.3962C9.74455 38.7154 9.18006 37.8776 8.95427 36.9351C8.72848 35.9925 8.72848 34.9976 9.06717 34.1074C9.40586 33.1649 10.0268 32.3794 10.8171 31.7511C11.5509 31.1751 12.4541 30.8085 13.4701 30.7038L4.49484 26.4623L17.3086 4.20779L41.9202 15.8849L38.5897 21.6449C38.5897 21.6449 37.122 23.3729 35.9366 22.1162C35.3157 21.3307 34.5819 20.5976 33.7351 20.0216C33.1142 19.6551 32.3804 19.3932 31.6465 19.2362C30.9127 19.1314 30.1224 19.1314 29.3886 19.2885C28.6548 19.4456 27.9774 19.7598 27.3565 20.1787C26.7355 20.5976 26.2275 21.1213 25.8324 21.7496C25.4372 22.378 25.2114 23.0587 25.0985 23.7394C24.9856 24.4202 25.0985 25.1533 25.2679 25.834C25.4372 26.5147 25.8324 27.1431 26.3404 27.6667C26.8484 28.1903 27.4129 28.6616 28.0903 28.9758C29.2193 29.3947 30.4047 29.6565 31.5901 29.6565Z" fill="#4C5EFD"/>
<path fill-rule="evenodd" clip-rule="evenodd" d="M7.7124 30.8609C6.47054 32.3794 5.84961 34.3169 5.9625 36.202C6.13185 38.1394 7.03502 39.9198 8.50268 41.2813C9.97034 42.6427 11.946 43.4282 14.0346 43.5329C16.1232 43.6376 18.1554 43.0093 19.7924 41.8573C21.0907 40.81 22.0503 39.3962 22.4455 37.8253L30.1789 41.4384L35.2028 32.746V32.3794C35.3721 31.5416 35.3721 30.6514 35.2028 29.7613C35.0335 29.0805 34.6383 28.4522 34.0738 27.9285C33.5093 27.4573 32.7755 27.0907 32.0417 26.986C31.5337 26.986 30.9127 26.8289 30.4047 26.7765C30.066 26.7765 29.7273 26.6718 29.3886 26.5671C29.0499 26.41 28.7677 26.1482 28.5983 25.8863C28.3725 25.6245 28.2032 25.3103 28.0903 24.9962C27.9774 24.682 27.9774 24.3154 28.0338 24.0012C28.0903 23.6871 28.2032 23.3205 28.3725 23.0587C28.5419 22.7445 28.8241 22.4827 29.1064 22.3256C29.3886 22.1162 29.7273 21.9591 30.066 21.8543C30.4047 21.7496 30.7998 21.7496 31.1385 21.802C31.4772 21.8543 31.8723 21.9591 32.1546 22.1162C32.8884 22.4827 33.1707 23.1634 33.6787 23.7394C34.2996 24.4725 35.2028 24.8914 36.1624 25.0485C37.122 25.1533 38.1381 24.9438 38.9284 24.4725C39.5493 24.106 40.1138 23.6347 40.6218 23.1111L40.7912 22.9016L45.5893 14.5758L15.841 0.647057L0.317657 27.4049L7.48661 30.7562L7.7124 30.8609ZM31.5901 29.6565C33.1142 29.9183 32.6062 31.8558 32.6062 31.8558L29.0499 37.9824L19.2843 33.3743C19.7359 34.2645 19.9617 35.2071 19.8488 36.202C19.7359 37.1445 19.3408 38.0871 18.7199 38.8725C18.0989 39.658 17.1957 40.234 16.2361 40.5482C15.2765 40.8623 14.204 40.9671 13.1879 40.7576C12.1718 40.5482 11.2122 40.0769 10.4784 39.3962C9.74455 38.7154 9.18007 37.8776 8.95427 36.9351C8.72848 35.9925 8.72848 34.9976 9.06717 34.1074C9.40586 33.1649 10.0268 32.3794 10.8171 31.7511C11.5509 31.1751 12.4541 30.8085 13.4701 30.7038L4.49484 26.4623L17.3086 4.20779L41.9202 15.8849L38.5897 21.6449C38.5897 21.6449 37.122 23.3729 35.9366 22.1685C35.3157 21.3831 34.5819 20.65 33.7351 20.074C33.1142 19.7074 32.3804 19.4456 31.6466 19.2885C30.9127 19.1838 30.1224 19.1838 29.3886 19.3409C28.6548 19.498 27.9774 19.8122 27.3565 20.2311C26.7355 20.65 26.2275 21.1736 25.8324 21.802C25.4372 22.4303 25.2114 23.1111 25.0985 23.7918C24.9856 24.4725 25.0985 25.2056 25.2679 25.8863C25.4937 26.5671 25.8324 27.1954 26.3404 27.7191C26.8484 28.2427 27.4129 28.714 28.0903 29.0282C29.2193 29.3947 30.4047 29.6042 31.5901 29.6565Z" fill="#2A2941"/>
</svg>
